<?xml version="1.0" standalone="no"?>
<!DOCTYPE svg PUBLIC "-//W3C//DTD SVG 20010904//EN"
 "http://www.w3.org/TR/2001/REC-SVG-20010904/DTD/svg10.dtd">
<svg version="1.0" xmlns="http://www.w3.org/2000/svg"
 width="800.000000pt" height="322.000000pt" viewBox="0 0 800.000000 322.000000"
 preserveAspectRatio="xMidYMid meet">

<g transform="translate(0.000000,322.000000) scale(0.100000,-0.100000)"
fill="#000000" stroke="none">
<path d="M0 1610 l0 -1610 4000 0 4000 0 0 1610 0 1610 -4000 0 -4000 0 0
-1610z m870 1346 c0 -2 47 -306 105 -676 58 -370 105 -678 105 -683 0 -41 21
79 116 680 l109 683 312 0 313 0 2 -1212 3 -1213 178 1195 c98 657 181 1203
183 1213 5 16 29 17 329 17 l323 0 6 -27 c3 -16 82 -541 176 -1168 94 -627
172 -1144 174 -1150 3 -5 5 520 5 1168 l1 1177 303 0 c266 0 312 -2 384 -20
188 -45 354 -165 465 -334 21 -33 40 -61 41 -63 2 -1 -9 92 -23 207 l-26 210
248 0 248 0 5 -22 c2 -13 52 -376 110 -808 58 -431 107 -785 108 -786 1 -1 52
361 112 804 l111 807 687 3 687 2 0 -245 0 -245 -217 -2 -218 -3 -3 -302 -2
-303 220 0 220 0 0 -250 0 -250 -220 0 -220 0 2 -307 3 -308 218 -3 217 -2 0
-245 0 -245 -460 0 -460 0 -1 1208 c0 664 -2 1203 -5 1197 -2 -5 -87 -536
-189 -1180 -102 -643 -188 -1182 -191 -1198 l-6 -27 -283 0 -284 0 -6 32 c-3
18 -66 391 -139 828 -124 745 -133 791 -139 728 -17 -161 -99 -336 -214 -458
l-74 -79 150 -514 c83 -283 151 -520 151 -526 0 -8 -69 -11 -238 -11 l-239 0
-102 393 c-149 570 -128 507 -165 501 -17 -3 -41 -7 -53 -10 l-23 -4 -2 -438
-3 -437 -462 -3 -461 -2 -6 27 c-3 16 -15 98 -26 183 -11 85 -23 167 -26 183
l-6 27 -186 -2 -187 -3 -16 -120 c-9 -66 -22 -159 -29 -208 l-12 -87 -472 2
-471 3 -5 615 -5 615 -94 -560 c-51 -308 -98 -586 -103 -618 l-10 -58 -132 3
-131 3 -105 618 -105 618 -5 -618 -5 -618 -245 0 -245 0 -3 1353 -2 1352 315
0 c173 0 315 -2 315 -4z m6470 -1106 l0 -1110 210 0 210 0 -2 -242 -3 -243
-450 0 -450 0 -3 1353 -2 1352 245 0 245 0 0 -1110z"/>
<path d="M3800 2044 l0 -436 37 7 c205 38 327 301 269 576 -33 156 -133 261
-268 284 l-38 6 0 -437z"/>
<path d="M2562 1688 c-34 -298 -62 -553 -62 -565 0 -23 2 -23 130 -23 105 0
130 3 130 14 0 17 -130 1098 -133 1109 -1 5 -31 -236 -65 -535z"/>
</g>
</svg>
